<?xml version="1.0" encoding="utf-8"?>
<!-- Generator: Adobe Illustrator 21.0.0, SVG Export Plug-In . SVG Version: 6.00 Build 0)  -->
<svg version="1.1" id="Layer_1" xmlns="http://www.w3.org/2000/svg" xmlns:xlink="http://www.w3.org/1999/xlink" x="0px" y="0px"
	 viewBox="0 0 150 50" style="enable-background:new 0 0 150 50;" xml:space="preserve">
<style type="text/css">
	.st0{fill:#ECECEC;}
	.st1{fill:#C1A57B;}
</style>
<g>
	<polygon class="st0" points="9.2,16 18.8,16 13.6,33.8 3.9,33.8 	"/>
</g>
<polygon class="st1" points="41.6,16 32,16 42,43.2 51.7,43.2 "/>
<g>
	<polygon class="st1" points="18.8,16 9.2,16 17.3,36.7 26.9,36.7 	"/>
</g>
<polygon class="st1" points="30.2,16 20.6,16 29.8,40.4 39.4,40.4 "/>
<polygon class="st0" points="51.7,39.3 51.7,7.2 42.9,7.2 42.9,15.9 51.6,39.3 "/>
<path class="st0" d="M61.6,20c0.3,0,0.5,0.2,0.5,0.5v8.3h0.7c0.7,0,1.4,0,2-0.1c0.7,0,1.4-0.1,2.1-0.3l0.2,1.5
	c-0.7,0.1-1.5,0.2-2.3,0.3c-0.8,0-1.8,0.1-2.8,0.1h-1.7v-9.8c0-0.3,0.2-0.5,0.5-0.5H61.6z M73.2,34.8h-0.7c-0.3,0-0.5-0.2-0.5-0.5
	v-8.5c0-0.3-0.2-0.5-0.5-0.5h-1.1c-0.3,0-0.5,0.2-0.5,0.5v7.7c0,0.3-0.2,0.5-0.5,0.5h-0.7c-0.3,0-0.5-0.2-0.5-0.5V19.3
	c0-0.3,0.2-0.5,0.5-0.5h0.7c0.3,0,0.5,0.2,0.5,0.5v4c0,0.3,0.2,0.5,0.5,0.5h1.1c0.3,0,0.5-0.2,0.5-0.5v-4.3c0-0.3,0.2-0.5,0.5-0.5
	h0.7c0.3,0,0.5,0.2,0.5,0.5v15.4C73.7,34.6,73.5,34.8,73.2,34.8z"/>
<path class="st1" d="M84.8,23.2c-0.1,0.2-0.3,0.4-0.5,0.8c-0.3,0.3-0.6,0.6-1,0.9c-0.5,0.4-1,0.8-1.6,1.2c-0.6,0.5-1.2,0.9-1.9,1.3
	l-1.2-1.6c0.7-0.5,1.4-0.9,2.1-1.4c0.7-0.5,1.2-0.9,1.6-1.3c0.3-0.3,0.5-0.5,0.7-0.8c0.2-0.2,0.3-0.5,0.4-0.8
	c0.1-0.3,0.2-0.6,0.2-0.9c0-0.3,0-0.7,0-1.1v-0.2h-4.4v-1.9H90v1.9h-4.1v0.1c0,0.4,0,0.7,0,1c0,0.3,0,0.5,0.1,0.8
	c0.1,0.2,0.2,0.5,0.3,0.7c0.1,0.2,0.4,0.4,0.6,0.7c0.5,0.4,1.1,0.9,1.7,1.3c0.6,0.4,1.3,0.9,1.9,1.3l-1.2,1.6
	c-0.6-0.4-1.2-0.8-1.7-1.2c-0.6-0.4-1.1-0.8-1.6-1.2c-0.3-0.2-0.6-0.5-0.8-0.7C85.1,23.5,84.9,23.3,84.8,23.2L84.8,23.2z M95.2,28.5
	v7.8c0,0.3-0.3,0.6-0.6,0.6H82.9c-0.3,0-0.6-0.3-0.6-0.6v-7.8c0-0.3,0.3-0.6,0.6-0.6h0.9c0.3,0,0.6,0.3,0.6,0.6v1.3
	c0,0.3,0.3,0.6,0.6,0.6h7.2c0.3,0,0.6-0.3,0.6-0.6v-1.3c0-0.3,0.3-0.6,0.6-0.6h0.9C94.9,27.9,95.2,28.1,95.2,28.5z M93,34.4V33
	c0-0.3-0.3-0.6-0.6-0.6h-7.2c-0.3,0-0.6,0.3-0.6,0.6v1.4c0,0.3,0.3,0.6,0.6,0.6h7.2C92.7,35,93,34.8,93,34.4z M93,26.2v-9.3
	c0-0.3,0.3-0.6,0.6-0.6h0.9c0.3,0,0.6,0.3,0.6,0.6v9.3c0,0.3-0.3,0.6-0.6,0.6h-0.9C93.2,26.9,93,26.6,93,26.2z"/>
<g>
	<path class="st0" d="M105.8,34.3v-5.7c0-0.3-0.2-0.5-0.5-0.5h-6.1v-1.5h4.5c0.1-0.4,0.2-0.9,0.3-1.4c0.1-0.5,0.2-0.9,0.2-1.4
		c0.1-0.4,0.1-0.8,0.1-1.2c0-0.4,0-0.7,0-1V21h-3.7v-1.5h5.4v1.2c0,1-0.1,2-0.2,3c-0.1,0.8-0.2,1.6-0.4,2.3
		c-0.1,0.3,0.2,0.6,0.5,0.6h3.4c0.2,0,0.4-0.2,0.5-0.4c0.2-0.9,0.3-1.6,0.4-2.3c0.1-0.8,0.1-1.5,0.1-2.2V21h-3.6v-1.5h5.3v1.2
		c0,0.9,0,1.8-0.1,2.8c0,0.8-0.1,1.6-0.3,2.5c-0.1,0.3,0.2,0.6,0.5,0.6h2v1.5h-6.1c-0.3,0-0.5,0.2-0.5,0.5v5.7
		c0,0.3-0.2,0.5-0.5,0.5h-0.8C106,34.8,105.8,34.6,105.8,34.3z"/>
	<path class="st0" d="M116.5,30v-9.6c0-0.3,0.2-0.5,0.5-0.5h6.6c0.3,0,0.5,0.2,0.5,0.5V30c0,0.3-0.2,0.5-0.5,0.5H117
		C116.7,30.5,116.5,30.2,116.5,30z M118.7,29h3.2c0.3,0,0.5-0.2,0.5-0.5v-6.6c0-0.3-0.2-0.5-0.5-0.5h-3.2c-0.3,0-0.5,0.2-0.5,0.5
		v6.6C118.2,28.8,118.5,29,118.7,29z M127.1,34.3V18.9c0-0.3,0.2-0.5,0.5-0.5h0.7c0.3,0,0.5,0.2,0.5,0.5v15.4c0,0.3-0.2,0.5-0.5,0.5
		h-0.7C127.3,34.8,127.1,34.6,127.1,34.3z"/>
	<path class="st0" d="M132.2,29.8c0.9-0.6,1.7-1,2.4-1.5c0.7-0.4,1.2-0.8,1.6-1.2c0.4-0.4,0.8-0.7,1-1c0.2-0.3,0.4-0.6,0.6-0.9
		c0.1-0.3,0.2-0.6,0.2-1c0-0.3,0-0.7,0-1.2v-1.6h-5.6v-1.5h6.8c0.3,0,0.5,0.2,0.5,0.5v2.6c0,0.5,0,1,0,1.4c0,0.4-0.1,0.8-0.3,1.2
		c-0.1,0.4-0.4,0.8-0.6,1.1s-0.7,0.8-1.2,1.2c-0.5,0.4-1.1,0.9-1.9,1.4c-0.8,0.5-1.7,1.1-2.7,1.7L132.2,29.8z M143.3,34.3V18.9
		c0-0.3,0.2-0.5,0.5-0.5h0.7c0.3,0,0.5,0.2,0.5,0.5v15.4c0,0.3-0.2,0.5-0.5,0.5h-0.7C143.5,34.8,143.3,34.6,143.3,34.3z"/>
</g>
</svg>
